<?xml version="1.0" encoding="utf-8"?>
<!-- Generator: Adobe Illustrator 22.0.1, SVG Export Plug-In . SVG Version: 6.00 Build 0)  -->
<svg version="1.1" id="Capa_1" xmlns="http://www.w3.org/2000/svg" xmlns:xlink="http://www.w3.org/1999/xlink" x="0px" y="0px"
	 viewBox="0 0 500 300" style="enable-background:new 0 0 500 300;" xml:space="preserve">
<style type="text/css">
	.st0{fill:none;stroke:#000000;stroke-width:6.9329;stroke-linecap:round;stroke-linejoin:round;}
	
		.st1{fill:none;stroke:#000000;stroke-width:6.9329;stroke-linecap:round;stroke-linejoin:round;stroke-dasharray:7.0846,14.1692,7.0846,14.1692;}
	
		.st2{fill:none;stroke:#000000;stroke-width:6.9329;stroke-linecap:round;stroke-linejoin:round;stroke-dasharray:7.0846,14.1692,7.0846,14.1692,7.0846,14.1692;}
	.st3{fill:#EBEBEE;stroke:#000000;stroke-width:3.4665;stroke-linecap:round;stroke-linejoin:round;stroke-miterlimit:10;}
	.st4{fill:#D6D6DE;stroke:#000000;stroke-width:3.4665;stroke-linecap:round;stroke-linejoin:round;stroke-miterlimit:10;}
	.st5{fill:#FFFFFF;stroke:#000000;stroke-width:3.4665;stroke-linecap:round;stroke-linejoin:round;stroke-miterlimit:10;}
</style>
<g>
	<g>
		<g>
			<path class="st0" d="M239,178c0,0-1.2,0.3-3.3,0.9"/>
			<path class="st1" d="M222.2,183c-9.3,3-21.4,7.4-33.1,12.7"/>
			<path class="st2" d="M182.7,198.8c-25.1,12.4-45.7,29.4-29.2,47.9c0,0,35.7,18,21.2-60.2c0,0-13.7-89.8-58.3-69.4
				c0,0-30,8.6-46.7,53.6c-9.9,26.6-22.7,36.4-31.6,40"/>
			<path class="st0" d="M31.5,212.5c-2.2,0.3-3.5,0.1-3.5,0.1"/>
		</g>
	</g>
	<polygon class="st3" points="306.2,168.6 253.7,178 272.1,93.1 471.3,59.8 	"/>
	<polygon class="st4" points="290,120.7 253.7,178 306.2,168.6 471.3,59.8 	"/>
	<polygon class="st5" points="214.7,60.5 471.3,59.8 272.1,93.1 	"/>
	<polygon class="st5" points="327,230.3 471.3,59.8 290,120.7 	"/>
</g>
</svg>
