<?xml version="1.0" encoding="utf-8"?>
<!-- Generator: Adobe Illustrator 22.0.1, SVG Export Plug-In . SVG Version: 6.00 Build 0)  -->
<svg version="1.1" xmlns="http://www.w3.org/2000/svg" xmlns:xlink="http://www.w3.org/1999/xlink" x="0px" y="0px"
	 viewBox="0 0 1200 300" style="enable-background:new 0 0 1200 300;" xml:space="preserve">
<style type="text/css">
	.st0{fill:#ED474A;stroke:#ED474A;stroke-width:4.0638;stroke-miterlimit:10;}
	.st1{fill:#0CB2C3;stroke:#0CB2C3;stroke-width:4.0638;stroke-miterlimit:10;}
	.st2{fill:#FE8518;stroke:#FE8518;stroke-width:4.0638;stroke-miterlimit:10;}
	.st3{fill:#EA418B;stroke:#EA418B;stroke-width:4.0638;stroke-miterlimit:10;}
	.st4{fill:#FBA100;stroke:#FBA100;stroke-width:4.0638;stroke-miterlimit:10;}
	.st5{fill:#85C353;stroke:#85C353;stroke-width:4.0638;stroke-miterlimit:10;}
	.st6{fill:none;stroke:#000000;stroke-width:7.1391;stroke-linecap:round;stroke-linejoin:round;stroke-miterlimit:10;}
	.st7{display:none;}
	.st8{display:inline;}
	.st9{stroke:#000000;stroke-width:4.0631;stroke-miterlimit:10;}
	.st10{fill:none;stroke:#000000;stroke-width:7.1379;stroke-linecap:round;stroke-linejoin:round;stroke-miterlimit:10;}
	.st11{fill:#FFFFFF;stroke:#FFFFFF;stroke-width:4.0632;stroke-miterlimit:10;}
	.st12{fill:#FFFFFF;}
	.st13{fill:none;stroke:#FFFFFF;stroke-width:7.138;stroke-linecap:round;stroke-linejoin:round;stroke-miterlimit:10;}
</style>
<g id="Capa_1">
	<g>
		<path class="st0" d="M111.9,40.3c-1.8,11.6-1.9,29.8-0.2,54.8c1.8,25.7,4.6,43.4,8.4,52.9c2.9,7.3,6.4,13.1,10.7,17.6
			c5.1,5.2,10.5,7.3,16.2,6.2c4-0.7,8-3.1,11.9-7.4c4-4.3,6.6-8.7,7.6-13.3c0.6-2.9,1.1-6,1.4-9.6c0.3-3.5,0.4-6.6,0.4-9.3
			c0-2.7-0.1-6.2-0.2-10.5c-0.1-4.4-0.2-7.6-0.2-9.9c0-2.6,0-7.2,0.1-13.8c0.1-6.6,0.1-11.6,0-15c-0.1-3.4-0.2-7.8-0.3-13.2
			c-0.1-5.3-0.4-10.2-0.7-14.7c-0.3-4.5-0.8-8.9-1.5-13.4c-0.1-1.2,0.1-2.2,0.8-3c0.6-0.8,1.5-1.3,2.6-1.5c1.1-0.1,2.1,0.1,2.9,0.8
			c0.8,0.7,1.3,1.5,1.5,2.5c0.6,4.6,1.1,9.2,1.5,13.8c0.3,4.7,0.6,9.8,0.7,15.2c0.1,5.5,0.2,9.9,0.3,13.5c0.1,3.5,0.1,8.6,0,15.1
			c-0.1,6.6-0.1,11.1-0.1,13.6c0,1.8,0.1,5,0.2,9.5c0.1,4.5,0.2,8.1,0.2,10.9c0,2.8-0.2,6.2-0.5,10.1c-0.3,4-0.9,7.5-1.7,10.6
			c-1.3,5.7-4.4,11.3-9.4,16.8c-4.9,5.5-10.3,8.7-16,9.8c-8.6,1.6-16.4-1.3-23.4-8.6c-5.1-5.2-9.2-12-12.5-20.3
			c-3.9-10.1-6.8-28.5-8.8-55c-1.8-25.6-1.8-44.5,0.2-56.6c0.3-1,0.8-1.9,1.7-2.5c0.8-0.6,1.8-0.9,2.8-0.7c1,0.2,1.9,0.7,2.5,1.6
			C111.7,38.4,112,39.3,111.9,40.3z"/>
		<path class="st1" d="M247.8,41.5c8.2,16.4,15.1,36.3,20.9,59.9c1.6,6,3.3,14.6,5.3,25.8c2,11.2,3.6,19.5,4.9,24.7
			c0-6.4,0.3-20.4,0.8-42.1c0.6-28.2,0.3-49.6-1.2-64.2c-0.1-1,0.2-2,0.9-2.8c0.7-0.8,1.6-1.3,2.6-1.5c1-0.1,2,0.2,2.8,0.9
			c0.8,0.7,1.3,1.6,1.5,2.6c1.4,15.2,1.8,36.9,1.2,65.2c-0.8,31.3-0.9,52.9-0.4,64.6c0,1-0.4,2-1.1,2.8c-0.7,0.8-1.6,1.3-2.6,1.3
			c-0.8,0-1.6-0.2-2.3-0.6c-1.4-0.3-2.5-1.1-3.1-2.5c-3.6-9.1-7.2-22.9-10.6-41.3c-3.4-18.4-5.4-28.7-6-30.9
			c-4.4-17.7-9.6-33.4-15.4-47.2c0.3,1.6,0.6,4.6,1,9c1,10.4,1.6,17.9,1.6,22.6c0,4.4-0.1,13.8-0.3,28c-0.2,14.2-0.2,25.3-0.1,33.3
			c0,2,0,4.8-0.1,8.6c-0.1,3.8-0.1,7,0,9.8c0.1,2.7,0.4,5.3,1.1,7.8c0.1,1-0.1,2-0.7,2.9c-0.6,0.9-1.4,1.5-2.4,1.7
			c-1,0.2-2,0-2.9-0.6c-0.9-0.6-1.5-1.4-1.8-2.4c-0.5-2.7-0.8-5.7-1-8.8c-0.1-3.1-0.2-6.7-0.1-10.7c0.1-4,0.1-6.8,0.1-8.2
			c-0.1-7.8-0.1-18.9,0.1-33.2c0.2-14.3,0.3-23.7,0.3-28.1c0-4.6-0.5-11.8-1.6-21.8c-1-10-1.6-17.6-1.6-22.6c0-1,0.4-2,1.2-2.7
			c0.8-0.8,1.7-1.2,2.7-1.2c0.5,0,1,0.1,1.6,0.2c0.9-0.3,1.8-0.2,2.7,0.1C246.6,40,247.3,40.6,247.8,41.5z"/>
		<path class="st2" d="M358.6,46.2c0.1,3.8,0.2,9.9,0.2,18.5c-0.1,7.7-0.1,13.7,0.2,17.9c0.1,2,0.5,6.2,1.2,12.7
			c0.6,5.5,1,9.9,1,13.3c0.1,4.6,0.1,10.8-0.2,18.8c-0.3,8-0.4,15.2-0.3,21.7c0.1,6.5,0.4,12.6,1.1,18.3h18.7c1,0,2,0.4,2.7,1.2
			c0.8,0.8,1.2,1.7,1.2,2.7c0,1-0.4,2-1.2,2.7c-0.8,0.8-1.7,1.2-2.7,1.2h-22c-1,0-2-0.4-2.7-1.2c-0.8-0.8-1.2-1.7-1.2-2.7
			c-0.1-0.3-0.2-0.5-0.2-0.6c-0.8-6.1-1.2-12.7-1.4-19.7c-0.1-7-0.1-14.8,0.1-23.3c0.2-8.5,0.3-14.9,0.3-19.2c0-3.1-0.3-7.3-1-12.5
			c-0.7-6.5-1-10.9-1.2-13.1c-0.3-4.3-0.3-10.5-0.2-18.5c0-8.3-0.1-14.3-0.2-17.9c0-1,0.4-2,1.1-2.8c0.7-0.8,1.6-1.3,2.6-1.3
			c1,0,2,0.4,2.8,1.1C358.2,44.3,358.6,45.2,358.6,46.2z"/>
		<path class="st3" d="M447.8,34.5c3.1-0.1,7.5-0.3,13.2-0.6c5.7-0.3,9.1-0.4,10.4-0.4c1,0,2,0.4,2.8,1.1c0.8,0.7,1.3,1.6,1.3,2.6
			c0,1-0.4,2-1.1,2.8c-0.7,0.8-1.6,1.3-2.6,1.3l-9.6,0.4v0.8c0,14.4,0,36.2,0.1,65.2c0.1,29,0.1,50.7,0.1,65.2
			c4,0.1,7.4,0.2,10.1,0.2c1,0,2,0.4,2.7,1.2c0.8,0.8,1.2,1.7,1.2,2.7c0,1-0.4,2-1.2,2.7c-0.8,0.8-1.7,1.2-2.7,1.2
			c-3,0-7.4-0.1-13.4-0.2c-5.9-0.1-10.4-0.2-13.4-0.2c-1,0-2-0.4-2.7-1.2c-0.8-0.8-1.2-1.7-1.2-2.7c0-1,0.4-2,1.2-2.7
			c0.8-0.8,1.7-1.2,2.7-1.2c2.5,0,5.4,0.1,8.8,0.2c0-14.6,0-36.3-0.1-65.2c-0.1-28.9-0.1-50.6-0.1-65.1v-0.4l-6.2,0.2
			c-1,0-2-0.4-2.8-1.1c-0.8-0.7-1.3-1.6-1.3-2.6c0-1,0.4-2,1.1-2.8C445.8,34.9,446.7,34.5,447.8,34.5z"/>
		<path class="st4" d="M538.7,174.7c-1.2-9.4-1.8-19.7-1.9-31c-0.1-11.3,0.2-24.1,0.7-38.2c0.5-14.2,0.8-24.5,0.8-31
			c0-3.6,0.1-9.4,0.4-17.2c0.1-5.1,0.3-8.5,0.4-10.3c0.1-1.6,0.3-2.8,0.4-3.7c0.1-0.5,0.3-1,0.4-1.4c0-0.4,0.1-0.7,0.2-1
			c0.4-0.8,1-1.4,1.8-1.8c2.3-1.4,4.7-1.2,7.2,0.8c1.6,0.9,3.2,2.5,4.9,4.9c2.3,3.1,5.3,8,9,14.6l8.2,15l1.6,3.1l1-1.8l7-14
			c3.4-6.6,5.9-11.4,7.6-14.4c1.2-2.2,2.2-3.9,3.1-5.1c0.5-0.8,1-1.4,1.6-2c1.2-0.9,2.4-1.4,3.7-1.4c1.3,0,2.4,0.6,3.3,1.8
			c0.4,0.5,0.7,1.1,1,1.8c0.4,0.9,0.6,2.1,0.8,3.5c0.4,2.2,0.6,5.3,0.8,9.4c0.3,6.9,0.3,13.8,0,20.9l-1,23.6
			c-0.7,12.9-1,22-1.2,27.3c-0.1,5.3,0,12.8,0.3,22.3c0.3,9.6,1,18,2,25.5c0.1,1-0.1,2-0.8,2.9c-0.7,0.9-1.5,1.4-2.5,1.6
			c-1,0.1-2-0.1-2.9-0.8c-0.9-0.7-1.4-1.5-1.6-2.5c-1-7.7-1.7-16.4-2-26.1c-0.3-9.8-0.4-17.4-0.3-22.9c0.1-5.5,0.5-14.7,1.2-27.6
			l1-23.6c0.3-7,0.3-13.7,0-20.1c0-1.3-0.1-2.5-0.2-3.7l-6.8,13.3c-3.6,7.4-6,12.2-7.2,14.2l-2.7,4.9c-0.5,0.8-1,1.4-1.4,1.8
			c-0.4,0.4-0.8,0.7-1.2,1c-1,0.5-2.1,0.7-3.1,0.6c-1-0.3-2-0.9-2.9-2c-0.5-0.4-1-1-1.6-2c-0.9-1.3-2-3.1-3.3-5.5L556,63.2
			c-3.5-6.4-6.3-10.9-8.4-13.7l-0.8-1c-0.1,2.3-0.3,5.3-0.4,9c-0.3,7.2-0.4,12.8-0.4,17c0,6.9-0.3,17.4-0.8,31.4
			c-0.5,14-0.8,26.6-0.8,37.6c0.1,10.9,0.8,21.1,2,30.4c0.1,1-0.1,2-0.8,2.8c-0.7,0.8-1.5,1.3-2.6,1.5c-1.1,0.1-2.1-0.1-2.9-0.8
			C539.3,176.8,538.8,175.9,538.7,174.7z"/>
		<path class="st5" d="M666,34.5c3.1-0.1,7.5-0.3,13.2-0.6c5.7-0.3,9.1-0.4,10.4-0.4c1,0,2,0.4,2.8,1.1c0.8,0.7,1.3,1.6,1.3,2.6
			c0,1-0.4,2-1.1,2.8c-0.7,0.8-1.6,1.3-2.6,1.3l-9.6,0.4v0.8c0,14.4,0,36.2,0.1,65.2c0.1,29,0.1,50.7,0.1,65.2
			c4,0.1,7.4,0.2,10.1,0.2c1,0,2,0.4,2.7,1.2c0.8,0.8,1.2,1.7,1.2,2.7c0,1-0.4,2-1.2,2.7c-0.8,0.8-1.7,1.2-2.7,1.2
			c-3,0-7.4-0.1-13.4-0.2c-5.9-0.1-10.4-0.2-13.4-0.2c-1,0-2-0.4-2.7-1.2c-0.8-0.8-1.2-1.7-1.2-2.7c0-1,0.4-2,1.2-2.7
			c0.8-0.8,1.7-1.2,2.7-1.2c2.5,0,5.4,0.1,8.8,0.2c0-14.6,0-36.3-0.1-65.2c-0.1-28.9-0.1-50.6-0.1-65.1v-0.4l-6.2,0.2
			c-1,0-2-0.4-2.8-1.1c-0.8-0.7-1.3-1.6-1.3-2.6c0-1,0.4-2,1.1-2.8C664.1,34.9,665,34.5,666,34.5z"/>
		<path class="st0" d="M748.2,37.2c6.2,0.3,12.9,0.4,20,0.4c7.1,0,15-0.1,23.7-0.2c8.7-0.1,15.4-0.2,20.1-0.2c1,0,2,0.4,2.7,1.2
			s1.2,1.7,1.2,2.7c0,1-0.4,2-1.2,2.7S813,45,811.9,45c-3.8,0-12.8,0.1-27.1,0.2c-0.4,5.2-0.7,10.8-0.8,16.8
			c-0.1,6-0.2,11.1-0.2,15.4c0,4.3,0.1,10,0.4,17.3c0.3,7.2,0.5,12.4,0.6,15.4c0.1,3.1,0.4,8.8,0.9,17.4c0.5,8.5,0.7,13.8,0.9,15.9
			c0.1,1.7,0.2,4.1,0.3,7.1c0.1,3.1,0.2,5.5,0.3,7.3l0.6,6.4c0.1,2.6,0.5,4.9,1,7c0.1,1-0.1,2-0.7,2.9c-0.6,0.9-1.4,1.5-2.4,1.7
			c-1,0.2-2,0-2.9-0.6c-0.9-0.6-1.5-1.4-1.8-2.4c-0.5-3-0.9-6-1.2-9c-0.3-3-0.5-6.9-0.7-11.6c-0.2-4.7-0.3-7.6-0.3-8.5
			c-0.1-2.1-0.4-7.3-0.9-15.7c-0.5-8.4-0.7-14.1-0.9-17.3c-0.1-3.1-0.3-8.3-0.6-15.5c-0.3-7.2-0.4-13-0.4-17.5
			c0-4.4,0.1-9.6,0.2-15.6c0.1-6,0.4-11.6,0.8-16.8c-11.4,0.1-21.2,0-29.3-0.4c-1,0-1.9-0.4-2.6-1.3c-0.7-0.8-1.1-1.8-1.1-2.8
			c0-1,0.4-1.9,1.3-2.6C746.2,37.6,747.1,37.2,748.2,37.2z"/>
		<path class="st1" d="M936.8,48.5c-2.5-0.3-10.7-0.5-24.8-0.6c-6.4,0-11.6,0.1-15.6,0.2h-5.1c-0.5,0.1-0.9,0.2-1.2,0.2
			c-0.4,0.4-0.7,1-1,1.8c-0.7,1.6-1.2,3.8-1.8,6.6c-0.9,4.9-1.4,11.6-1.6,20.1c0,5.3,0.1,12.6,0.2,21.8v0.8
			c4.6,0.1,11.5,0.2,20.9,0.1c9.4-0.1,16.3,0,20.9,0.1c1,0,1.9,0.4,2.6,1.2c0.7,0.8,1.1,1.7,1.1,2.8c0,1.1-0.4,2-1.2,2.7
			c-0.8,0.7-1.8,1.1-2.9,1.1c-4.7-0.1-11.5-0.2-20.5-0.1c-9,0.1-15.9,0-20.7-0.1c0.1,3,0.1,5.1,0,6.4c-1,18.3-1.6,28.9-1.8,31.6
			c-0.3,7.5-0.3,13.6,0,18.1c0.1,2.6,0.3,4.5,0.4,5.7c0.1,0.1,0.2,0.3,0.2,0.4c0.3,0.1,0.5,0.2,0.8,0.2c1.3,0.1,3.1,0.3,5.3,0.4
			c3.8,0.1,8.6,0.1,14.6,0c12-0.4,20.2-0.9,24.8-1.6c1.2-0.1,2.2,0.1,3,0.8c0.8,0.7,1.3,1.5,1.5,2.6c0.1,1.1-0.1,2.1-0.8,2.9
			c-0.7,0.8-1.5,1.3-2.5,1.5c-5.1,0.6-13.7,1.2-25.7,1.6c-6.1,0.1-11.2,0.1-15.2,0c-2.3-0.1-4.3-0.3-5.9-0.4c-2-0.3-3.4-0.7-4.5-1.4
			c-1-0.5-1.8-1.4-2.3-2.7c-0.3-0.8-0.5-1.7-0.8-2.7c-0.3-1.7-0.5-4-0.6-6.8c-0.3-4.7-0.3-11,0-18.9c0.1-2.7,0.7-13.3,1.8-31.6
			c0.1-1.4,0.1-4,0-7.8c-0.5-0.8-0.8-1.6-0.8-2.5c0-0.8,0.3-1.4,0.8-2l-0.2-2.1c-0.1-9.4-0.2-16.8-0.2-22.2
			c0.1-8.8,0.6-15.9,1.6-21.3c0.6-3.4,1.4-6.1,2.3-8.2c1.2-3,2.8-5,4.9-6c0.5-0.3,1.2-0.5,2.1-0.6h1.8c1.4-0.1,3.2-0.2,5.5-0.2
			c4.2-0.1,9.4-0.2,15.8-0.2c14.3,0.1,22.8,0.3,25.6,0.6c1,0.1,1.9,0.6,2.6,1.5c0.7,0.8,1,1.8,0.9,2.8c-0.1,1-0.6,1.9-1.5,2.6
			C938.8,48.4,937.8,48.7,936.8,48.5z"/>
		<path class="st2" d="M1012.7,39.4c7.1,0,13.8,1.4,20.1,4.1s11.6,6.4,16.1,11c4.5,4.6,8.4,9.9,11.7,15.9c3.3,6,5.8,12.2,7.5,18.5
			c1.7,6.2,2.6,12.6,2.7,18.9c0.3,8.8-0.3,15-1.6,18.5c-3.6,9.9-12.2,20-25.6,30.2c-11.6,8.8-23.1,15.4-34.5,19.7
			c-1,0.4-2,0.4-3-0.1c-1-0.5-1.7-1.2-2-2.2c-0.4-1-0.3-2.1,0.2-3.1v-0.2c2.9-30,4.2-52.9,3.9-68.5c0-2-0.7-11.4-2.1-28.5
			c-1-12.2-1-22.1,0.2-29.6c0.4-2,1.6-3.1,3.5-3.3C1010.5,39.8,1011.5,39.4,1012.7,39.4z M1012.5,166.3c9.2-4.2,18-9.4,26.3-15.8
			c12.2-9.5,19.9-18.5,23-26.9c1-2.6,1.4-7.7,1.2-15.4c-0.3-10.1-2.3-19.7-6.2-28.7c-4-9-9.9-16.5-17.5-22.7
			c-7.6-6.2-16.2-9.4-25.7-9.7c-0.9,6.5-0.9,15.1,0,25.7c1.6,18.3,2.3,28.1,2.3,29.3C1016.2,117.8,1015.1,139.2,1012.5,166.3z"/>
	</g>
	<g>
		<g>
			<path d="M511.7,256.3v13.9H507v-34.7h13.3c3.7,0,6.6,1,8.6,2.9c2.1,1.9,3.1,4.4,3.1,7.5c0,3.1-1,5.7-3.1,7.5
				c-2.1,1.9-4.9,2.8-8.6,2.8H511.7z M511.7,252.6h8.6c2.3,0,4.1-0.6,5.3-1.9c1.2-1.3,1.7-2.9,1.7-4.8c0-1.9-0.6-3.5-1.8-4.8
				c-1.2-1.3-2.9-1.9-5.3-1.9h-8.6V252.6z"/>
			<path d="M552.6,261.2h-13l-3.1,8.9h-4.8l12.5-34.7h4l12.2,34.7h-4.8L552.6,261.2z M541,257.3h10.4l-5-14.9h-0.1L541,257.3z"/>
			<path d="M591.8,270.2h-4.7l-16.7-26.5l-0.1,0v26.4h-4.7v-34.7h4.7L587,262l0.1,0v-26.4h4.7V270.2z"/>
			<path d="M618.2,261.2h-13l-3.1,8.9h-4.8l12.5-34.7h4l12.2,34.7h-4.8L618.2,261.2z M606.6,257.3h10.4l-5-14.9h-0.1L606.6,257.3z"
				/>
			<path d="M648.4,263.7h0.1l11.1-28.2h5.8v34.7h-4.7v-26l-0.1,0l-10.5,26h-3.3L636,243.3l-0.1,0v26.8h-4.7v-34.7h6.2L648.4,263.7z"
				/>
			<path d="M691.9,261.2h-13l-3.1,8.9h-4.8l12.5-34.7h4l12.2,34.7h-4.8L691.9,261.2z M680.2,257.3h10.4l-5-14.9h-0.1L680.2,257.3z
				 M687.6,225.8h5.5l0,0.1l-6.4,6.2h-3.5L687.6,225.8z"/>
		</g>
		<line class="st6" x1="717.3" y1="254.9" x2="1179.4" y2="254.9"/>
		<line class="st6" x1="24.3" y1="254.9" x2="486.4" y2="254.9"/>
	</g>
</g>
<g id="Capa_2" class="st7">
	<g class="st8">
		<g>
			<path class="st9" d="M110.2,38.4c-1.8,11.6-1.9,29.8-0.2,54.8c1.8,25.7,4.6,43.4,8.4,52.9c2.9,7.3,6.4,13.1,10.7,17.6
				c5.1,5.2,10.5,7.3,16.2,6.2c4-0.7,8-3.1,11.9-7.4c4-4.3,6.6-8.7,7.6-13.3c0.6-2.9,1.1-6,1.4-9.6c0.3-3.5,0.4-6.6,0.4-9.3
				c0-2.7-0.1-6.2-0.2-10.5c-0.1-4.4-0.2-7.6-0.2-9.8c0-2.6,0-7.2,0.1-13.7c0.1-6.6,0.1-11.6,0-15c-0.1-3.4-0.2-7.8-0.3-13.2
				c-0.1-5.3-0.4-10.2-0.7-14.7c-0.3-4.5-0.8-8.9-1.5-13.4c-0.1-1.2,0.1-2.2,0.8-3c0.6-0.8,1.5-1.3,2.6-1.5c1.1-0.1,2.1,0.1,2.9,0.8
				c0.8,0.7,1.3,1.5,1.5,2.5c0.6,4.6,1.1,9.2,1.5,13.8c0.3,4.7,0.6,9.8,0.7,15.2c0.1,5.5,0.2,9.9,0.3,13.5c0.1,3.5,0.1,8.6,0,15.1
				C174,103,174,107.5,174,110c0,1.8,0.1,5,0.2,9.5c0.1,4.5,0.2,8.1,0.2,10.9c0,2.8-0.2,6.2-0.5,10.1c-0.3,4-0.9,7.5-1.7,10.6
				c-1.3,5.7-4.4,11.3-9.4,16.8c-4.9,5.5-10.3,8.7-16,9.8c-8.6,1.6-16.4-1.3-23.4-8.6c-5.1-5.2-9.2-12-12.5-20.3
				c-3.9-10.1-6.8-28.5-8.8-55c-1.8-25.6-1.8-44.5,0.2-56.6c0.3-1,0.8-1.9,1.7-2.5c0.8-0.6,1.8-0.9,2.8-0.7c1,0.2,1.9,0.7,2.5,1.6
				C110.1,36.4,110.4,37.4,110.2,38.4z"/>
			<path class="st9" d="M246.2,39.6c8.2,16.4,15.1,36.3,20.9,59.9c1.6,6,3.3,14.6,5.3,25.8c2,11.2,3.6,19.5,4.9,24.7
				c0-6.4,0.3-20.4,0.8-42.1c0.6-28.2,0.3-49.6-1.2-64.2c-0.1-1,0.2-2,0.9-2.8c0.7-0.8,1.6-1.3,2.6-1.5c1-0.1,2,0.2,2.8,0.9
				c0.8,0.7,1.3,1.6,1.5,2.6c1.4,15.2,1.8,36.9,1.2,65.1c-0.8,31.3-0.9,52.9-0.4,64.6c0,1-0.4,2-1.1,2.8c-0.7,0.8-1.6,1.3-2.6,1.3
				c-0.8,0-1.6-0.2-2.3-0.6c-1.4-0.3-2.5-1.1-3.1-2.5c-3.6-9.1-7.2-22.9-10.6-41.2c-3.4-18.4-5.4-28.7-5.9-30.9
				c-4.4-17.7-9.6-33.4-15.4-47.2c0.3,1.6,0.6,4.6,1,9c1,10.4,1.6,17.9,1.6,22.6c0,4.4-0.1,13.8-0.3,28c-0.2,14.2-0.2,25.3-0.1,33.3
				c0,2,0,4.8-0.1,8.6c-0.1,3.8-0.1,7,0,9.8c0.1,2.7,0.4,5.3,1.1,7.8c0.1,1-0.1,2-0.7,2.9c-0.6,0.9-1.4,1.5-2.4,1.7
				c-1,0.2-2,0-2.9-0.6c-0.9-0.6-1.5-1.4-1.8-2.4c-0.5-2.7-0.8-5.7-1-8.8c-0.1-3.1-0.2-6.7-0.1-10.7c0.1-4,0.1-6.8,0.1-8.2
				c-0.1-7.8-0.1-18.9,0.1-33.2c0.2-14.3,0.3-23.7,0.3-28.1c0-4.5-0.5-11.8-1.6-21.8c-1-10-1.6-17.6-1.6-22.6c0-1,0.4-2,1.2-2.7
				c0.8-0.8,1.7-1.2,2.7-1.2c0.5,0,1,0.1,1.6,0.2c0.9-0.3,1.8-0.2,2.7,0.1C244.9,38.1,245.6,38.7,246.2,39.6z"/>
			<path class="st9" d="M356.9,44.3c0.1,3.8,0.2,9.9,0.2,18.5c-0.1,7.7-0.1,13.7,0.2,17.9c0.1,2,0.5,6.2,1.2,12.7
				c0.6,5.5,1,9.9,1,13.3c0.1,4.6,0.1,10.8-0.2,18.8c-0.3,8-0.4,15.2-0.3,21.7c0.1,6.5,0.4,12.6,1.1,18.3h18.7c1,0,2,0.4,2.7,1.2
				c0.8,0.8,1.2,1.7,1.2,2.7c0,1-0.4,2-1.2,2.7c-0.8,0.8-1.7,1.2-2.7,1.2h-22c-1,0-2-0.4-2.7-1.2c-0.8-0.8-1.2-1.7-1.2-2.7
				c-0.1-0.3-0.2-0.5-0.2-0.6c-0.8-6.1-1.2-12.7-1.4-19.7c-0.1-7-0.1-14.8,0.1-23.3c0.2-8.5,0.3-14.9,0.3-19.2c0-3.1-0.3-7.3-1-12.5
				c-0.7-6.5-1-10.9-1.2-13.1c-0.3-4.3-0.3-10.5-0.2-18.5c0-8.3-0.1-14.3-0.2-17.9c0-1,0.4-2,1.1-2.8c0.7-0.8,1.6-1.3,2.6-1.3
				c1,0,2,0.4,2.8,1.1C356.5,42.4,356.9,43.2,356.9,44.3z"/>
			<path class="st9" d="M446.1,32.6c3.1-0.1,7.5-0.3,13.2-0.6c5.7-0.3,9.1-0.4,10.4-0.4c1,0,2,0.4,2.8,1.1c0.8,0.7,1.3,1.6,1.3,2.6
				c0,1-0.4,2-1.1,2.8c-0.7,0.8-1.6,1.3-2.6,1.3l-9.6,0.4v0.8c0,14.4,0,36.1,0.1,65.1c0.1,29,0.1,50.7,0.1,65.1
				c4,0.1,7.4,0.2,10.1,0.2c1,0,2,0.4,2.7,1.2c0.8,0.8,1.2,1.7,1.2,2.7c0,1-0.4,2-1.2,2.7c-0.8,0.8-1.7,1.2-2.7,1.2
				c-3,0-7.4-0.1-13.4-0.2c-5.9-0.1-10.4-0.2-13.4-0.2c-1,0-2-0.4-2.7-1.2c-0.8-0.8-1.2-1.7-1.2-2.7c0-1,0.4-2,1.2-2.7
				s1.7-1.2,2.7-1.2c2.5,0,5.4,0.1,8.8,0.2c0-14.6,0-36.3-0.1-65.2c-0.1-28.9-0.1-50.6-0.1-65v-0.4l-6.2,0.2c-1,0-2-0.4-2.8-1.1
				c-0.8-0.7-1.3-1.6-1.3-2.6c0-1,0.4-2,1.1-2.8C444.1,33,445,32.6,446.1,32.6z"/>
			<path class="st9" d="M536.9,172.8c-1.2-9.4-1.8-19.7-1.9-31c-0.1-11.3,0.2-24.1,0.7-38.2c0.5-14.2,0.8-24.5,0.8-31
				c0-3.6,0.1-9.4,0.4-17.2c0.1-5.1,0.3-8.5,0.4-10.3c0.1-1.6,0.3-2.8,0.4-3.7c0.1-0.5,0.3-1,0.4-1.4c0-0.4,0.1-0.7,0.2-1
				c0.4-0.8,1-1.4,1.8-1.8c2.3-1.4,4.7-1.2,7.2,0.8c1.6,0.9,3.2,2.5,4.9,4.9c2.3,3.1,5.3,8,9,14.6l8.2,15l1.6,3.1l1-1.8l7-14
				c3.4-6.6,5.9-11.4,7.6-14.4c1.2-2.2,2.2-3.9,3.1-5.1c0.5-0.8,1-1.4,1.6-2c1.2-0.9,2.4-1.4,3.7-1.4c1.3,0,2.4,0.6,3.3,1.8
				c0.4,0.5,0.7,1.1,1,1.8c0.4,0.9,0.6,2.1,0.8,3.5c0.4,2.2,0.6,5.3,0.8,9.4c0.3,6.9,0.3,13.8,0,20.9l-1,23.6
				c-0.7,12.9-1,22-1.2,27.3c-0.1,5.3,0,12.8,0.3,22.3c0.3,9.6,1,18,2,25.5c0.1,1-0.1,2-0.8,2.9c-0.7,0.9-1.5,1.4-2.5,1.6
				c-1,0.1-2-0.1-2.9-0.8c-0.9-0.7-1.4-1.5-1.6-2.5c-1-7.7-1.7-16.4-2-26.1c-0.3-9.8-0.4-17.4-0.3-22.9c0.1-5.5,0.5-14.7,1.2-27.6
				l1-23.6c0.3-7,0.3-13.7,0-20.1c0-1.3-0.1-2.5-0.2-3.7l-6.8,13.3c-3.6,7.4-6,12.2-7.2,14.2l-2.7,4.9c-0.5,0.8-1,1.4-1.4,1.8
				c-0.4,0.4-0.8,0.7-1.2,1c-1,0.5-2.1,0.7-3.1,0.6c-1-0.3-2-0.9-2.9-2c-0.5-0.4-1-1-1.6-2c-0.9-1.3-2-3.1-3.3-5.5l-8.2-15.2
				c-3.5-6.4-6.3-10.9-8.4-13.7l-0.8-1c-0.1,2.3-0.3,5.3-0.4,9c-0.3,7.2-0.4,12.8-0.4,17c0,6.9-0.3,17.4-0.8,31.4
				c-0.5,14-0.8,26.6-0.8,37.6c0.1,10.9,0.8,21.1,2,30.4c0.1,1-0.1,2-0.8,2.8c-0.7,0.8-1.5,1.3-2.6,1.5c-1.1,0.1-2.1-0.1-2.9-0.8
				C537.6,174.9,537.1,174,536.9,172.8z"/>
			<path class="st9" d="M664.3,32.6c3.1-0.1,7.5-0.3,13.2-0.6c5.7-0.3,9.1-0.4,10.4-0.4c1,0,2,0.4,2.8,1.1c0.8,0.7,1.3,1.6,1.3,2.6
				c0,1-0.4,2-1.1,2.8c-0.7,0.8-1.6,1.3-2.6,1.3l-9.6,0.4v0.8c0,14.4,0,36.1,0.1,65.1c0.1,29,0.1,50.7,0.1,65.1
				c4,0.1,7.4,0.2,10.1,0.2c1,0,2,0.4,2.7,1.2c0.8,0.8,1.2,1.7,1.2,2.7c0,1-0.4,2-1.2,2.7c-0.8,0.8-1.7,1.2-2.7,1.2
				c-3,0-7.4-0.1-13.4-0.2c-5.9-0.1-10.4-0.2-13.4-0.2c-1,0-2-0.4-2.7-1.2c-0.8-0.8-1.2-1.7-1.2-2.7c0-1,0.4-2,1.2-2.7
				s1.7-1.2,2.7-1.2c2.5,0,5.4,0.1,8.8,0.2c0-14.6,0-36.3-0.1-65.2c-0.1-28.9-0.1-50.6-0.1-65v-0.4l-6.2,0.2c-1,0-2-0.4-2.8-1.1
				c-0.8-0.7-1.3-1.6-1.3-2.6c0-1,0.4-2,1.1-2.8C662.4,33,663.3,32.6,664.3,32.6z"/>
			<path class="st9" d="M746.4,35.3c6.2,0.3,12.9,0.4,20,0.4c7.1,0,15-0.1,23.7-0.2c8.7-0.1,15.4-0.2,20.1-0.2c1,0,2,0.4,2.7,1.2
				c0.8,0.8,1.2,1.7,1.2,2.7c0,1-0.4,2-1.2,2.7c-0.8,0.8-1.7,1.2-2.7,1.2c-3.8,0-12.8,0.1-27.1,0.2c-0.4,5.2-0.7,10.8-0.8,16.8
				c-0.1,6-0.2,11.1-0.2,15.4s0.1,10,0.4,17.3c0.3,7.2,0.5,12.4,0.6,15.4c0.1,3.1,0.4,8.8,0.9,17.4c0.5,8.5,0.7,13.8,0.9,15.9
				c0.1,1.7,0.2,4.1,0.3,7.1c0.1,3.1,0.2,5.5,0.3,7.3l0.6,6.4c0.1,2.6,0.5,4.9,1,7c0.1,1-0.1,2-0.7,2.9c-0.6,0.9-1.4,1.5-2.4,1.7
				c-1,0.2-2,0-2.9-0.6c-0.9-0.6-1.5-1.4-1.8-2.4c-0.5-3-0.9-6-1.2-9c-0.3-3-0.5-6.9-0.7-11.6c-0.2-4.7-0.3-7.6-0.3-8.5
				c-0.1-2.1-0.4-7.3-0.9-15.7c-0.5-8.4-0.7-14.1-0.9-17.3c-0.1-3.1-0.3-8.3-0.6-15.5c-0.3-7.2-0.4-13-0.4-17.5
				c0-4.4,0.1-9.6,0.2-15.6c0.1-6,0.4-11.6,0.8-16.8c-11.4,0.1-21.2,0-29.3-0.4c-1,0-1.9-0.4-2.6-1.3c-0.7-0.8-1.1-1.8-1.1-2.8
				c0-1,0.4-1.9,1.3-2.6C744.4,35.7,745.4,35.3,746.4,35.3z"/>
			<path class="st9" d="M935,46.6c-2.5-0.3-10.7-0.5-24.8-0.6c-6.4,0-11.6,0.1-15.6,0.2h-5.1c-0.5,0.1-0.9,0.2-1.2,0.2
				c-0.4,0.4-0.7,1-1,1.8c-0.7,1.6-1.2,3.8-1.8,6.6c-0.9,4.9-1.4,11.6-1.6,20.1c0,5.3,0.1,12.6,0.2,21.8v0.8
				c4.5,0.1,11.5,0.2,20.9,0.1c9.4-0.1,16.3,0,20.9,0.1c1,0,1.9,0.4,2.6,1.2c0.7,0.8,1.1,1.7,1.1,2.8c0,1.1-0.4,2-1.2,2.7
				c-0.8,0.7-1.8,1.1-2.9,1.1c-4.7-0.1-11.5-0.2-20.5-0.1c-9,0.1-15.9,0-20.7-0.1c0.1,3,0.1,5.1,0,6.4c-1,18.3-1.6,28.9-1.8,31.6
				c-0.3,7.5-0.3,13.6,0,18.1c0.1,2.6,0.3,4.5,0.4,5.7c0.1,0.1,0.2,0.3,0.2,0.4c0.3,0.1,0.5,0.2,0.8,0.2c1.3,0.1,3.1,0.3,5.3,0.4
				c3.8,0.1,8.6,0.1,14.6,0c12-0.4,20.2-0.9,24.8-1.6c1.2-0.1,2.2,0.1,3,0.8c0.8,0.6,1.3,1.5,1.5,2.6c0.1,1.1-0.1,2.1-0.8,2.9
				c-0.7,0.8-1.5,1.3-2.5,1.5c-5.1,0.6-13.7,1.2-25.7,1.6c-6.1,0.1-11.2,0.1-15.2,0c-2.3-0.1-4.3-0.3-5.9-0.4
				c-2-0.3-3.4-0.7-4.5-1.4c-1-0.5-1.8-1.4-2.3-2.7c-0.3-0.8-0.5-1.7-0.8-2.7c-0.3-1.7-0.5-4-0.6-6.8c-0.3-4.7-0.3-11,0-18.9
				c0.1-2.7,0.7-13.3,1.8-31.6c0.1-1.4,0.1-4,0-7.8c-0.5-0.8-0.8-1.6-0.8-2.5c0-0.8,0.3-1.4,0.8-2l-0.2-2.1
				c-0.1-9.4-0.2-16.8-0.2-22.2c0.1-8.8,0.6-15.9,1.6-21.3c0.6-3.4,1.4-6.1,2.3-8.2c1.2-3,2.8-5,4.9-6c0.5-0.3,1.2-0.5,2.1-0.6h1.8
				c1.4-0.1,3.2-0.2,5.5-0.2c4.2-0.1,9.4-0.2,15.8-0.2c14.3,0.1,22.8,0.3,25.5,0.6c1,0.1,1.9,0.6,2.6,1.5c0.7,0.8,1,1.8,0.9,2.8
				c-0.1,1-0.6,1.9-1.5,2.6C937,46.5,936,46.8,935,46.6z"/>
			<path class="st9" d="M1010.9,37.5c7.1,0,13.8,1.4,20.1,4.1c6.2,2.7,11.6,6.4,16.1,11c4.5,4.6,8.4,9.9,11.7,15.9
				c3.3,6,5.8,12.2,7.5,18.5c1.7,6.2,2.6,12.5,2.7,18.9c0.3,8.8-0.3,15-1.6,18.5c-3.6,9.9-12.2,20-25.5,30.2
				c-11.6,8.8-23.1,15.4-34.5,19.7c-1,0.4-2,0.4-3-0.1c-1-0.5-1.7-1.2-2-2.2c-0.4-1-0.3-2.1,0.2-3.1v-0.2c2.9-30,4.2-52.9,3.9-68.5
				c0-2-0.7-11.4-2.1-28.5c-1-12.2-1-22.1,0.2-29.6c0.4-2,1.6-3.1,3.5-3.3C1008.7,37.9,1009.7,37.5,1010.9,37.5z M1010.7,164.4
				c9.2-4.2,18-9.4,26.3-15.8c12.2-9.5,19.9-18.5,23-26.9c1-2.6,1.4-7.7,1.2-15.4c-0.3-10.1-2.3-19.7-6.2-28.7
				c-4-9-9.8-16.5-17.5-22.7c-7.6-6.2-16.2-9.4-25.6-9.7c-0.9,6.5-0.9,15.1,0,25.7c1.6,18.3,2.3,28.1,2.3,29.3
				C1014.4,115.9,1013.3,137.2,1010.7,164.4z"/>
		</g>
	</g>
	<g class="st8">
		<g>
			<path d="M510,254.3v13.9h-4.7v-34.7h13.3c3.7,0,6.6,1,8.6,2.9c2.1,1.9,3.1,4.4,3.1,7.5c0,3.1-1,5.7-3.1,7.5
				c-2.1,1.9-4.9,2.8-8.6,2.8H510z M510,250.6h8.6c2.3,0,4.1-0.6,5.3-1.9s1.7-2.9,1.7-4.8c0-1.9-0.6-3.5-1.8-4.8
				c-1.2-1.3-2.9-1.9-5.3-1.9H510V250.6z"/>
			<path d="M550.9,259.3h-13l-3.1,8.9H530l12.5-34.7h4l12.2,34.7H554L550.9,259.3z M539.2,255.3h10.4l-5-14.9h-0.1L539.2,255.3z"/>
			<path d="M590.1,268.2h-4.7l-16.7-26.5l-0.1,0v26.4h-4.7v-34.7h4.7l16.7,26.5l0.1,0v-26.4h4.7V268.2z"/>
			<path d="M616.5,259.3h-13l-3.1,8.9h-4.8l12.5-34.7h4l12.2,34.7h-4.8L616.5,259.3z M604.8,255.3h10.4l-5-14.9H610L604.8,255.3z"/>
			<path d="M646.6,261.7h0.1l11.1-28.2h5.8v34.7H659v-26l-0.1,0l-10.5,26h-3.3l-10.8-26.9l-0.1,0v26.8h-4.7v-34.7h6.2L646.6,261.7z"
				/>
			<path d="M690.1,259.3h-13l-3.1,8.9h-4.8l12.5-34.7h4l12.2,34.7h-4.8L690.1,259.3z M678.4,255.3h10.4l-5-14.9h-0.1L678.4,255.3z
				 M685.9,223.8h5.5l0,0.1l-6.4,6.2h-3.5L685.9,223.8z"/>
		</g>
		<line class="st10" x1="715.5" y1="253" x2="1177.6" y2="253"/>
		<line class="st10" x1="22.6" y1="253" x2="484.7" y2="253"/>
	</g>
</g>
<g id="Capa_3" class="st7">
	<g class="st8">
		<g>
			<g>
				<path class="st11" d="M127.7,38.9c-1.8,11.6-1.9,29.8-0.2,54.8c1.8,25.7,4.6,43.4,8.4,52.9c2.9,7.3,6.4,13.1,10.7,17.6
					c5.1,5.2,10.5,7.3,16.2,6.2c4-0.7,8-3.1,11.9-7.4c4-4.3,6.6-8.7,7.6-13.3c0.6-2.9,1.1-6,1.4-9.6c0.3-3.5,0.4-6.6,0.4-9.3
					c0-2.7-0.1-6.2-0.2-10.5c-0.1-4.4-0.2-7.6-0.2-9.8c0-2.6,0-7.2,0.1-13.7c0.1-6.6,0.1-11.6,0-15c-0.1-3.4-0.2-7.8-0.3-13.2
					c-0.1-5.3-0.4-10.2-0.7-14.7c-0.3-4.5-0.8-8.9-1.5-13.4c-0.1-1.2,0.1-2.2,0.8-3c0.6-0.8,1.5-1.3,2.6-1.5
					c1.1-0.1,2.1,0.1,2.9,0.8c0.8,0.7,1.3,1.5,1.5,2.5c0.6,4.6,1.1,9.2,1.5,13.8c0.3,4.7,0.6,9.8,0.7,15.2c0.1,5.5,0.2,9.9,0.3,13.5
					c0.1,3.5,0.1,8.6,0,15.1c-0.1,6.6-0.1,11.1-0.1,13.6c0,1.8,0.1,5,0.2,9.5c0.1,4.5,0.2,8.1,0.2,10.9c0,2.8-0.2,6.2-0.5,10.1
					c-0.3,4-0.9,7.5-1.7,10.6c-1.3,5.7-4.4,11.3-9.4,16.8c-4.9,5.5-10.3,8.7-16,9.8c-8.6,1.6-16.4-1.3-23.4-8.6
					c-5.1-5.2-9.2-12-12.5-20.3c-3.9-10.1-6.8-28.5-8.8-55c-1.8-25.6-1.8-44.5,0.2-56.6c0.3-1,0.8-1.9,1.7-2.5
					c0.8-0.6,1.8-0.9,2.8-0.7c1,0.2,1.9,0.7,2.5,1.6C127.6,37,127.9,37.9,127.7,38.9z"/>
				<path class="st11" d="M263.7,40.1c8.2,16.4,15.1,36.3,20.9,59.9c1.6,6,3.3,14.6,5.3,25.8c2,11.2,3.6,19.5,4.9,24.7
					c0-6.4,0.3-20.4,0.8-42.1c0.6-28.2,0.3-49.6-1.2-64.2c-0.1-1,0.2-2,0.9-2.8c0.7-0.8,1.6-1.3,2.6-1.5c1-0.1,2,0.2,2.8,0.9
					c0.8,0.7,1.3,1.6,1.5,2.6c1.4,15.2,1.8,36.9,1.2,65.1c-0.8,31.3-0.9,52.9-0.4,64.6c0,1-0.4,2-1.1,2.8c-0.7,0.8-1.6,1.3-2.6,1.3
					c-0.8,0-1.6-0.2-2.3-0.6c-1.4-0.3-2.5-1.1-3.1-2.5c-3.6-9.1-7.2-22.9-10.6-41.2c-3.4-18.4-5.4-28.7-5.9-30.9
					c-4.4-17.7-9.6-33.4-15.4-47.2c0.3,1.6,0.6,4.6,1,9c1,10.4,1.6,17.9,1.6,22.6c0,4.4-0.1,13.8-0.3,28
					c-0.2,14.2-0.2,25.3-0.1,33.3c0,2,0,4.8-0.1,8.6c-0.1,3.8-0.1,7,0,9.8c0.1,2.7,0.4,5.3,1.1,7.8c0.1,1-0.1,2-0.7,2.9
					c-0.6,0.9-1.4,1.5-2.4,1.7c-1,0.2-2,0-2.9-0.6c-0.9-0.6-1.5-1.4-1.8-2.4c-0.5-2.7-0.8-5.7-1-8.8c-0.1-3.1-0.2-6.7-0.1-10.7
					c0.1-4,0.1-6.8,0.1-8.2c-0.1-7.8-0.1-18.9,0.1-33.2c0.2-14.3,0.3-23.7,0.3-28.1c0-4.5-0.5-11.8-1.6-21.8
					c-1-10-1.6-17.6-1.6-22.6c0-1,0.4-2,1.2-2.7c0.8-0.8,1.7-1.2,2.7-1.2c0.5,0,1,0.1,1.6,0.2c0.9-0.3,1.8-0.2,2.7,0.1
					C262.4,38.6,263.2,39.2,263.7,40.1z"/>
				<path class="st11" d="M374.5,44.8c0.1,3.8,0.2,9.9,0.2,18.5c-0.1,7.7-0.1,13.7,0.2,17.9c0.1,2,0.5,6.2,1.2,12.7
					c0.6,5.5,1,9.9,1,13.3c0.1,4.6,0.1,10.8-0.2,18.8c-0.3,8-0.4,15.2-0.3,21.7c0.1,6.5,0.4,12.6,1.1,18.3h18.7c1,0,1.9,0.4,2.7,1.2
					c0.8,0.8,1.2,1.7,1.2,2.7c0,1-0.4,2-1.2,2.7c-0.8,0.8-1.7,1.2-2.7,1.2h-22c-1,0-1.9-0.4-2.7-1.2c-0.8-0.8-1.2-1.7-1.2-2.7
					c-0.1-0.3-0.2-0.5-0.2-0.6c-0.8-6.1-1.2-12.7-1.4-19.7c-0.1-7-0.1-14.8,0.1-23.3c0.2-8.5,0.3-14.9,0.3-19.2
					c0-3.1-0.3-7.3-1-12.5c-0.7-6.5-1-10.9-1.2-13.1c-0.3-4.3-0.3-10.5-0.2-18.5c0-8.3-0.1-14.3-0.2-17.9c0-1,0.4-2,1.1-2.8
					c0.7-0.8,1.6-1.3,2.6-1.3c1,0,2,0.4,2.8,1.1C374,42.9,374.5,43.8,374.5,44.8z"/>
				<path class="st11" d="M463.6,33.1c3.1-0.1,7.5-0.3,13.2-0.6c5.7-0.3,9.1-0.4,10.4-0.4c1,0,2,0.4,2.8,1.1
					c0.8,0.7,1.3,1.6,1.3,2.6c0,1-0.4,2-1.1,2.8c-0.7,0.8-1.6,1.3-2.6,1.3l-9.6,0.4v0.8c0,14.4,0,36.1,0.1,65.1
					c0.1,29,0.1,50.7,0.1,65.1c4,0.1,7.4,0.2,10.1,0.2c1,0,1.9,0.4,2.7,1.2c0.8,0.8,1.2,1.7,1.2,2.7c0,1-0.4,2-1.2,2.7
					c-0.8,0.8-1.7,1.2-2.7,1.2c-3,0-7.4-0.1-13.4-0.2c-5.9-0.1-10.4-0.2-13.4-0.2c-1,0-2-0.4-2.7-1.2c-0.8-0.8-1.2-1.7-1.2-2.7
					c0-1,0.4-2,1.2-2.7c0.8-0.8,1.7-1.2,2.7-1.2c2.5,0,5.4,0.1,8.8,0.2c0-14.6,0-36.3-0.1-65.2c-0.1-28.9-0.1-50.6-0.1-65v-0.4
					l-6.2,0.2c-1,0-2-0.4-2.8-1.1c-0.8-0.7-1.3-1.6-1.3-2.6c0-1,0.4-2,1.1-2.8C461.7,33.5,462.5,33.1,463.6,33.1z"/>
				<path class="st11" d="M554.5,173.3c-1.2-9.4-1.8-19.7-1.9-31c-0.1-11.3,0.2-24.1,0.7-38.2c0.5-14.2,0.8-24.5,0.8-31
					c0-3.6,0.1-9.4,0.4-17.2c0.1-5.1,0.3-8.5,0.4-10.3c0.1-1.6,0.3-2.8,0.4-3.7c0.1-0.5,0.3-1,0.4-1.4c0-0.4,0.1-0.7,0.2-1
					c0.4-0.8,1-1.4,1.8-1.8c2.3-1.4,4.7-1.2,7.2,0.8c1.6,0.9,3.2,2.5,4.9,4.9c2.3,3.1,5.3,8,9,14.6l8.2,15l1.6,3.1l1-1.8l7-14
					c3.4-6.6,5.9-11.4,7.6-14.4c1.2-2.2,2.2-3.9,3.1-5.1c0.5-0.8,1-1.4,1.6-2c1.2-0.9,2.4-1.4,3.7-1.4c1.3,0,2.4,0.6,3.3,1.8
					c0.4,0.5,0.7,1.1,1,1.8c0.4,0.9,0.6,2.1,0.8,3.5c0.4,2.2,0.6,5.3,0.8,9.4c0.3,6.9,0.3,13.8,0,20.9l-1,23.6
					c-0.7,12.9-1,22-1.2,27.3c-0.1,5.3,0,12.8,0.3,22.3c0.3,9.6,1,18,2,25.5c0.1,1-0.1,2-0.8,2.9c-0.7,0.9-1.5,1.4-2.5,1.6
					c-1,0.1-2-0.1-2.9-0.8c-0.9-0.7-1.4-1.5-1.6-2.5c-1-7.7-1.7-16.4-2-26.1c-0.3-9.8-0.4-17.4-0.3-22.9c0.1-5.5,0.5-14.7,1.2-27.6
					l1-23.6c0.3-7,0.3-13.7,0-20.1c0-1.3-0.1-2.5-0.2-3.7l-6.8,13.3c-3.6,7.4-6,12.2-7.2,14.2l-2.7,4.9c-0.5,0.8-1,1.4-1.4,1.8
					s-0.8,0.7-1.2,1c-1,0.5-2.1,0.7-3.1,0.6c-1-0.3-2-0.9-2.9-2c-0.5-0.4-1-1-1.6-2c-0.9-1.3-2-3.1-3.3-5.5l-8.2-15.2
					c-3.5-6.4-6.3-10.9-8.4-13.7l-0.8-1c-0.1,2.3-0.3,5.3-0.4,9c-0.3,7.2-0.4,12.8-0.4,17c0,6.9-0.3,17.4-0.8,31.4
					c-0.5,14-0.8,26.6-0.8,37.6c0.1,10.9,0.8,21.1,1.9,30.4c0.1,1-0.1,2-0.8,2.8c-0.7,0.8-1.5,1.3-2.6,1.5c-1.1,0.1-2.1-0.1-2.9-0.8
					C555.1,175.4,554.6,174.5,554.5,173.3z"/>
				<path class="st11" d="M681.8,33.1c3.1-0.1,7.5-0.3,13.2-0.6c5.7-0.3,9.1-0.4,10.4-0.4c1,0,2,0.4,2.8,1.1
					c0.8,0.7,1.3,1.6,1.3,2.6c0,1-0.4,2-1.1,2.8c-0.7,0.8-1.6,1.3-2.6,1.3l-9.6,0.4v0.8c0,14.4,0,36.1,0.1,65.1
					c0.1,29,0.1,50.7,0.1,65.1c4,0.1,7.4,0.2,10.1,0.2c1,0,1.9,0.4,2.7,1.2c0.8,0.8,1.2,1.7,1.2,2.7c0,1-0.4,2-1.2,2.7
					c-0.8,0.8-1.7,1.2-2.7,1.2c-3,0-7.4-0.1-13.4-0.2c-5.9-0.1-10.4-0.2-13.4-0.2c-1,0-2-0.4-2.7-1.2c-0.8-0.8-1.2-1.7-1.2-2.7
					c0-1,0.4-2,1.2-2.7c0.8-0.8,1.7-1.2,2.7-1.2c2.5,0,5.4,0.1,8.8,0.2c0-14.6,0-36.3-0.1-65.2c-0.1-28.9-0.1-50.6-0.1-65v-0.4
					l-6.2,0.2c-1,0-2-0.4-2.8-1.1c-0.8-0.7-1.3-1.6-1.3-2.6c0-1,0.4-2,1.1-2.8C679.9,33.5,680.8,33.1,681.8,33.1z"/>
				<path class="st11" d="M763.9,35.8c6.2,0.3,12.9,0.4,20,0.4c7.1,0,15-0.1,23.7-0.2c8.7-0.1,15.4-0.2,20.1-0.2
					c1,0,1.9,0.4,2.7,1.2c0.8,0.8,1.2,1.7,1.2,2.7c0,1-0.4,2-1.2,2.7c-0.8,0.8-1.7,1.2-2.7,1.2c-3.8,0-12.8,0.1-27.1,0.2
					c-0.4,5.2-0.7,10.8-0.8,16.8c-0.1,6-0.2,11.1-0.2,15.4c0,4.3,0.1,10,0.4,17.3c0.3,7.2,0.5,12.4,0.6,15.4
					c0.1,3.1,0.4,8.8,0.9,17.4c0.5,8.5,0.7,13.8,0.9,15.9c0.1,1.7,0.2,4.1,0.3,7.1c0.1,3.1,0.2,5.5,0.3,7.3l0.6,6.4
					c0.1,2.6,0.5,4.9,1,7c0.1,1-0.1,2-0.7,2.9c-0.6,0.9-1.4,1.5-2.4,1.7c-1,0.2-2,0-2.9-0.6c-0.9-0.6-1.5-1.4-1.8-2.4
					c-0.5-3-0.9-6-1.2-9c-0.3-3-0.5-6.9-0.7-11.6c-0.2-4.7-0.3-7.6-0.3-8.5c-0.1-2.1-0.4-7.3-0.9-15.7c-0.5-8.4-0.7-14.1-0.9-17.3
					c-0.1-3.1-0.3-8.3-0.6-15.5c-0.3-7.2-0.4-13-0.4-17.5c0-4.4,0.1-9.6,0.2-15.6c0.1-6,0.4-11.6,0.8-16.8
					c-11.4,0.1-21.2,0-29.3-0.4c-1,0-1.9-0.4-2.6-1.3c-0.7-0.8-1.1-1.8-1.1-2.8c0-1,0.4-1.9,1.3-2.6
					C761.9,36.2,762.9,35.8,763.9,35.8z"/>
				<path class="st11" d="M952.5,47.1c-2.5-0.3-10.7-0.5-24.8-0.6c-6.4,0-11.6,0.1-15.6,0.2h-5.1c-0.5,0.1-0.9,0.2-1.2,0.2
					c-0.4,0.4-0.7,1-1,1.8c-0.7,1.6-1.2,3.8-1.8,6.6c-0.9,4.9-1.4,11.6-1.6,20.1c0,5.3,0.1,12.6,0.2,21.8V98
					c4.5,0.1,11.5,0.2,20.9,0.1c9.4-0.1,16.3,0,20.9,0.1c1,0,1.9,0.4,2.6,1.2c0.7,0.8,1.1,1.7,1.1,2.8c0,1.1-0.4,2-1.2,2.7
					c-0.8,0.7-1.8,1.1-2.9,1.1c-4.7-0.1-11.5-0.2-20.5-0.1c-9,0.1-15.9,0-20.7-0.1c0.1,3,0.1,5.1,0,6.4c-1,18.3-1.6,28.9-1.8,31.6
					c-0.3,7.5-0.3,13.6,0,18.1c0.1,2.6,0.3,4.5,0.4,5.7c0.1,0.1,0.2,0.3,0.2,0.4c0.3,0.1,0.5,0.2,0.8,0.2c1.3,0.1,3.1,0.3,5.3,0.4
					c3.8,0.1,8.6,0.1,14.6,0c12-0.4,20.2-0.9,24.8-1.6c1.2-0.1,2.2,0.1,3,0.8c0.8,0.6,1.3,1.5,1.5,2.6c0.1,1.1-0.1,2.1-0.8,2.9
					c-0.7,0.8-1.5,1.3-2.5,1.5c-5.1,0.6-13.7,1.2-25.7,1.6c-6.1,0.1-11.2,0.1-15.2,0c-2.3-0.1-4.3-0.3-5.9-0.4
					c-1.9-0.3-3.4-0.7-4.5-1.4c-1-0.5-1.8-1.4-2.3-2.7c-0.3-0.8-0.5-1.7-0.8-2.7c-0.3-1.7-0.5-4-0.6-6.8c-0.3-4.7-0.3-11,0-18.9
					c0.1-2.7,0.7-13.3,1.8-31.6c0.1-1.4,0.1-4,0-7.8c-0.5-0.8-0.8-1.6-0.8-2.5c0-0.8,0.3-1.4,0.8-2l-0.2-2.1
					c-0.1-9.4-0.2-16.8-0.2-22.2c0.1-8.8,0.6-15.9,1.6-21.3c0.6-3.4,1.4-6.1,2.3-8.2c1.2-3,2.8-5,4.9-6c0.5-0.3,1.2-0.5,2.1-0.6h1.8
					c1.4-0.1,3.2-0.2,5.5-0.2c4.2-0.1,9.4-0.2,15.8-0.2c14.3,0.1,22.8,0.3,25.5,0.6c1,0.1,1.9,0.6,2.6,1.5c0.7,0.8,1,1.8,0.9,2.8
					c-0.1,1-0.6,1.9-1.5,2.6C954.5,47,953.6,47.3,952.5,47.1z"/>
				<path class="st11" d="M1028.4,38c7.1,0,13.8,1.4,20.1,4.1c6.2,2.7,11.6,6.4,16.1,11c4.5,4.6,8.4,9.9,11.7,15.9
					c3.3,6,5.8,12.2,7.5,18.5c1.7,6.2,2.6,12.5,2.7,18.9c0.3,8.8-0.3,15-1.6,18.5c-3.6,9.9-12.2,20-25.5,30.2
					c-11.6,8.8-23.1,15.4-34.5,19.7c-1,0.4-2,0.4-3-0.1c-1-0.5-1.7-1.2-2-2.2c-0.4-1-0.3-2.1,0.2-3.1v-0.2c2.9-30,4.2-52.9,3.9-68.5
					c0-2-0.7-11.4-2.1-28.5c-1-12.2-1-22.1,0.2-29.6c0.4-2,1.6-3.1,3.5-3.3C1026.2,38.4,1027.2,38,1028.4,38z M1028.2,164.9
					c9.2-4.2,18-9.4,26.3-15.8c12.2-9.5,19.9-18.5,23-26.9c1-2.6,1.4-7.7,1.2-15.4c-0.3-10.1-2.3-19.7-6.2-28.7
					c-4-9-9.8-16.5-17.5-22.7c-7.6-6.2-16.2-9.4-25.6-9.7c-0.9,6.5-0.9,15.1,0,25.7c1.6,18.3,2.3,28.1,2.3,29.3
					C1032,116.4,1030.8,137.8,1028.2,164.9z"/>
			</g>
		</g>
		<g>
			<g>
				<path class="st12" d="M512.4,254.8v13.9h-4.7v-34.7h13.3c3.7,0,6.6,1,8.6,2.9c2.1,1.9,3.1,4.4,3.1,7.5c0,3.1-1,5.7-3.1,7.5
					c-2.1,1.9-4.9,2.8-8.6,2.8H512.4z M512.4,251.2h8.6c2.3,0,4.1-0.6,5.3-1.9c1.2-1.3,1.7-2.9,1.7-4.8c0-1.9-0.6-3.5-1.7-4.8
					s-2.9-1.9-5.2-1.9h-8.6V251.2z"/>
				<path class="st12" d="M553.3,259.8h-13l-3.1,8.9h-4.8l12.5-34.7h4l12.2,34.7h-4.8L553.3,259.8z M541.6,255.9H552l-5-14.9h-0.1
					L541.6,255.9z"/>
				<path class="st12" d="M592.4,268.7h-4.7l-16.7-26.5l-0.1,0v26.4h-4.7v-34.7h4.7l16.7,26.4l0.1,0v-26.4h4.7V268.7z"/>
				<path class="st12" d="M618.9,259.8h-13l-3.1,8.9H598l12.5-34.7h4l12.2,34.7h-4.8L618.9,259.8z M607.2,255.9h10.4l-5-14.9h-0.1
					L607.2,255.9z"/>
				<path class="st12" d="M649,262.2h0.1l11.1-28.2h5.8v34.7h-4.7v-26l-0.1,0l-10.5,26h-3.3l-10.8-26.9l-0.1,0v26.8h-4.7v-34.7h6.2
					L649,262.2z"/>
				<path class="st12" d="M692.5,259.8h-13l-3.1,8.9h-4.8l12.5-34.7h4l12.2,34.7h-4.8L692.5,259.8z M680.8,255.9h10.4l-5-14.9H686
					L680.8,255.9z M688.2,224.4h5.5l0,0.1l-6.4,6.2h-3.5L688.2,224.4z"/>
			</g>
			<line class="st13" x1="717.9" y1="253.5" x2="1180" y2="253.5"/>
			<line class="st13" x1="25" y1="253.5" x2="487.1" y2="253.5"/>
		</g>
	</g>
</g>
</svg>
